HIERARCHY
ROOT Hips
{
	OFFSET 0.000000 0.000000 0.000000
	CHANNELS 6 Xposition Yposition Zposition Zrotation Yrotation Xrotation 
	JOINT LHipJoint
	{
		OFFSET 0.000000 0.000000 0.000000
		CHANNELS 3 Zrotation Yrotation Xrotation
		JOINT LeftUpLeg
		{
			OFFSET 1.363060 -1.794630 0.839290
			CHANNELS 3 Zrotation Yrotation Xrotation
			JOINT LeftLeg
			{
				OFFSET 2.448110 -6.726130 0.000000
				CHANNELS 3 Zrotation Yrotation Xrotation
				JOINT LeftFoot
				{
					OFFSET 2.562200 -7.039590 0.000000
					CHANNELS 3 Zrotation Yrotation Xrotation
					JOINT LeftToeBase
					{
						OFFSET 0.157640 -0.433110 2.322550
						CHANNELS 3 Zrotation Yrotation Xrotation
						End Site
						{
							OFFSET 0.000000 0.000000 0.000000
						}
					}
				}
			}
		}
	}
	JOINT RHipJoint
	{
		OFFSET 0.000000 0.000000 0.000000
		CHANNELS 3 Zrotation Yrotation Xrotation
		JOINT RightUpLeg
		{
			OFFSET -1.305520 -1.794630 0.839290
			CHANNELS 3 Zrotation Yrotation Xrotation
			JOINT RightLeg
			{
				OFFSET -2.542530 -6.985550 0.000000
				CHANNELS 3 Zrotation Yrotation Xrotation
				JOINT RightFoot
				{
					OFFSET -2.568260 -7.056230 0.000000
					CHANNELS 3 Zrotation Yrotation Xrotation
					JOINT RightToeBase
					{
						OFFSET -0.164730 -0.452590 2.363150
						CHANNELS 3 Zrotation Yrotation Xrotation
						End Site
						{
							OFFSET 0.000000 0.000000 0.000000
						}
					}
				}
			}
		}
	}
	JOINT LowerBack
	{
		OFFSET 0.000000 0.000000 0.000000
		CHANNELS 3 Zrotation Yrotation Xrotation
		JOINT Spine
		{
			OFFSET 0.028270 2.035590 -0.193380
			CHANNELS 3 Zrotation Yrotation Xrotation
			JOINT Spine1
			{
				OFFSET 0.056720 2.048850 -0.042750
				CHANNELS 3 Zrotation Yrotation Xrotation
				JOINT Neck
				{
					OFFSET 0.000000 0.000000 0.000000
					CHANNELS 3 Zrotation Yrotation Xrotation
					JOINT Neck1
					{
						OFFSET -0.054170 1.746240 0.172020
						CHANNELS 3 Zrotation Yrotation Xrotation
						JOINT Head
						{
							OFFSET 0.104070 1.761360 -0.123970
							CHANNELS 3 Zrotation Yrotation Xrotation
							End Site
							{
								OFFSET 0.000000 0.000000 0.000000
							}
						}
					}
				}
				JOINT LeftShoulder
				{
					OFFSET 0.000000 0.000000 0.000000
					CHANNELS 3 Zrotation Yrotation Xrotation
					JOINT LeftArm
					{
						OFFSET 3.362410 1.200890 -0.311210
						CHANNELS 3 Zrotation Yrotation Xrotation
						JOINT LeftForeArm
						{
							OFFSET 4.983000 -0.000000 -0.000000
							CHANNELS 3 Zrotation Yrotation Xrotation
							JOINT LeftHand
							{
								OFFSET 3.483560 -0.000000 -0.000000
								CHANNELS 3 Zrotation Yrotation Xrotation
								JOINT LeftFingerBase
								{
									OFFSET 0.000000 0.000000 0.000000
									CHANNELS 3 Zrotation Yrotation Xrotation
									JOINT LeftHandIndex1
									{
										OFFSET 0.715260 -0.000000 -0.000000
										CHANNELS 3 Zrotation Yrotation Xrotation
										End Site
										{
											OFFSET 0.000000 0.000000 0.000000
										}
									}
								}
								JOINT LThumb
								{
									OFFSET 0.000000 0.000000 0.000000
									CHANNELS 3 Zrotation Yrotation Xrotation
									End Site
									{
										OFFSET 0.000000 0.000000 0.000000
									}
								}
							}
						}
					}
				}
				JOINT RightShoulder
				{
					OFFSET 0.000000 0.000000 0.000000
					CHANNELS 3 Zrotation Yrotation Xrotation
					JOINT RightArm
					{
						OFFSET -3.136600 1.374050 -0.404650
						CHANNELS 3 Zrotation Yrotation Xrotation
						JOINT RightForeArm
						{
							OFFSET -5.241900 -0.000000 -0.000000
							CHANNELS 3 Zrotation Yrotation Xrotation
							JOINT RightHand
							{
								OFFSET -3.444170 -0.000000 -0.000000
								CHANNELS 3 Zrotation Yrotation Xrotation
								JOINT RightFingerBase
								{
									OFFSET 0.000000 0.000000 0.000000
									CHANNELS 3 Zrotation Yrotation Xrotation
									JOINT RightHandIndex1
									{
										OFFSET -0.622530 -0.000000 -0.000000
										CHANNELS 3 Zrotation Yrotation Xrotation
										End Site
										{
											OFFSET 0.000000 0.000000 0.000000
										}
									}
								}
								JOINT RThumb
								{
									OFFSET 0.000000 0.000000 0.000000
									CHANNELS 3 Zrotation Yrotation Xrotation
									End Site
									{
										OFFSET 0.000000 0.000000 0.000000
									}
								}
							}
						}
					}
				}
			}
		}
	}
}
MOTION
Frames: 8
Frame Time: 0.008333
0.873293 17.063852 -12.572676 0.414819 -5.073151 20.877525 -1.008140 -3.396199 -4.843442 -12.019631 -6.814267 -47.409363 0.096593 10.215484 25.444843 0.459407 0.214092 8.217175 0.918100 -6.104900 -17.089000 0.097425 1.006485 -0.731802 15.498376 -1.416406 -4.081665 -2.670553 -11.170350 34.306697 -0.781749 14.612367 12.142174 -0.051000 1.457700 -4.009200 -4.338248 2.250355 -9.034069 -0.208503 3.157953 -10.050562 0.558929 2.008888 -0.499790 -0.889603 -0.350279 -9.648147 4.374725 -0.785781 10.902996 0.180100 -0.089300 3.832700 12.868732 7.886268 0.553712 -97.836355 24.437175 -36.893650 2.196127 -8.226674 0.054509 -1.170231 -0.067323 63.372257 10.833582 -13.309445 -2.416700 -7.125000 0.000000 0.000000 -11.059000 17.690700 7.313400 -12.924026 -6.866482 -0.266182 93.408234 -0.067143 34.682779 -47.807217 57.396011 -23.878098 0.519136 -1.326523 -17.073778 -20.610596 -32.237543 10.934300 7.125000 0.000000 0.000000 12.885700 -61.922500 -5.353000
0.878575 17.063167 -12.451930 0.576072 -4.840752 20.755107 -0.989894 -3.363992 -4.800385 -12.268617 -7.008846 -47.371058 0.239853 10.473389 26.239323 0.479470 -0.124295 7.888082 0.862414 -5.917913 -16.547557 0.055664 1.025769 -0.787861 15.395988 -1.502891 -4.583128 -2.978506 -11.588598 35.739215 -0.796582 13.809121 13.530826 -0.081374 1.801164 -4.957500 -4.588675 2.140016 -8.967474 -0.226716 3.061654 -10.025204 0.601191 1.955371 -0.468631 -0.907221 -0.397556 -9.632709 4.483273 -0.864404 10.851518 0.225570 -0.125968 3.803192 12.872321 7.873359 0.548919 -97.783986 24.151448 -36.980871 2.194107 -8.218237 0.037228 -1.141683 -0.060961 63.644011 10.547215 -12.866422 -2.275365 -7.125000 0.000000 0.000000 -11.281606 18.118810 7.355176 -12.934641 -6.870078 -0.243972 93.561944 -0.431941 34.541702 -47.370185 57.212372 -23.558903 0.508890 -1.331942 -16.959057 -20.600261 -32.192488 10.909536 7.125000 0.000000 0.000000 12.875758 -61.873382 -5.333845
0.883856 17.062483 -12.331185 0.737326 -4.608353 20.632688 -0.971647 -3.331786 -4.757327 -12.517603 -7.203425 -47.332753 0.383113 10.731295 27.033803 0.499533 -0.462682 7.558988 0.806728 -5.730925 -16.006115 0.013903 1.045053 -0.843920 15.293599 -1.589377 -5.084591 -3.286460 -12.006846 37.171732 -0.811414 13.005875 14.919478 -0.111748 2.144628 -5.905800 -4.839103 2.029677 -8.900879 -0.244929 2.965356 -9.999846 0.643453 1.901854 -0.437472 -0.924840 -0.444833 -9.617271 4.591820 -0.943027 10.800041 0.271040 -0.162636 3.773685 12.875910 7.860450 0.544126 -97.731616 23.865720 -37.068093 2.192086 -8.209800 0.019946 -1.113136 -0.054599 63.915765 10.260849 -12.423399 -2.134030 -7.125000 0.000000 0.000000 -11.504213 18.546920 7.396951 -12.945257 -6.873674 -0.221762 93.715653 -0.796739 34.400624 -46.933154 57.028734 -23.239708 0.498645 -1.337361 -16.844336 -20.589925 -32.147433 10.884771 7.125000 0.000000 0.000000 12.865815 -61.824263 -5.314690
0.887559 17.063378 -12.214900 0.923284 -4.420519 20.519767 -0.957494 -3.299456 -4.711707 -12.817417 -7.323027 -47.287861 0.516455 10.956460 27.748199 0.531854 -0.887736 7.195696 0.702293 -5.333990 -14.868923 -0.025400 1.067002 -0.899737 15.158140 -1.575950 -5.622801 -3.623803 -12.420070 38.636097 -0.841008 12.350904 16.111921 -0.146099 2.443871 -6.734987 -5.146108 1.918142 -8.784194 -0.259888 2.870705 -9.993264 0.724714 1.855539 -0.472179 -0.966890 -0.479403 -9.595104 4.709159 -1.003738 10.756731 0.325236 -0.190687 3.750915 12.876913 7.845367 0.535829 -97.684021 23.581054 -37.161945 2.176250 -8.163078 0.011872 -1.096527 -0.031582 64.174728 9.861365 -12.319774 -2.039787 -7.125000 0.000000 0.000000 -11.778735 18.644349 7.556220 -12.953008 -6.870825 -0.200770 93.857664 -1.176788 34.280602 -46.446101 56.813251 -22.884675 0.487290 -1.342518 -16.814260 -20.594772 -32.060589 10.853968 7.125000 0.000000 0.000000 12.814230 -61.737883 -5.266963
0.890885 17.064649 -12.099681 1.115138 -4.243320 20.409112 -0.944317 -3.267096 -4.665474 -13.129361 -7.424737 -47.241398 0.647431 11.173812 28.443484 0.567101 -1.333472 6.824243 0.586224 -4.886953 -13.589564 -0.064117 1.089587 -0.955497 15.014788 -1.538681 -6.169779 -3.968160 -12.832094 40.108061 -0.874125 11.731317 17.257540 -0.181398 2.732562 -7.535749 -5.466616 1.806321 -8.655554 -0.274070 2.776448 -9.991163 0.815282 1.810943 -0.522603 -1.014771 -0.510942 -9.571331 4.828596 -1.060173 10.715371 0.381515 -0.216683 3.729754 12.877299 7.829766 0.526696 -97.637564 23.296641 -37.257380 2.157117 -8.107220 0.005995 -1.082766 -0.004590 64.430638 9.434889 -12.297142 -1.956783 -7.125000 0.000000 0.000000 -12.065647 18.662865 7.743527 -12.960076 -6.866438 -0.180069 93.996882 -1.560477 34.165605 -45.947112 56.590168 -22.521088 0.475670 -1.347612 -16.804384 -20.603241 -31.963773 10.821724 7.125000 0.000000 0.000000 12.752706 -61.642610 -5.212418
0.895052 17.068235 -11.985693 1.297828 -4.122994 20.296747 -0.937367 -3.236566 -4.617890 -13.463051 -7.449880 -47.149414 0.764968 11.359962 29.055055 0.604272 -1.781259 6.439764 0.450167 -4.231151 -11.738042 -0.102385 1.111784 -1.012256 14.854102 -1.427814 -6.721408 -4.331651 -13.236388 41.594807 -0.922760 11.125483 18.434156 -0.173863 2.671478 -7.366357 -5.775487 1.706122 -8.514908 -0.283881 2.691519 -9.992008 0.912928 1.772670 -0.584562 -1.023420 -0.518142 -9.543438 4.897238 -1.080230 10.671120 0.407657 -0.225523 3.705425 12.877360 7.815820 0.520122 -97.621316 23.093523 -37.384856 2.170586 -8.131218 -0.002024 -1.073454 0.033422 64.670360 8.913240 -12.417583 -1.878517 -7.125000 0.000000 0.000000 -12.401673 18.543233 8.005459 -12.962686 -6.857530 -0.159647 94.118377 -1.967791 34.103250 -45.483221 56.377320 -22.184029 0.462251 -1.353231 -16.852432 -20.709167 -32.053936 10.901166 7.125000 0.000000 0.000000 12.714030 -61.755234 -5.229918
0.899747 17.073273 -11.872479 1.474774 -4.038319 20.183311 -0.934320 -3.207184 -4.569459 -13.810373 -7.427025 -47.028894 0.874082 11.526554 29.614148 0.642650 -2.230333 6.047121 0.301580 -3.444481 -9.527850 -0.140371 1.133736 -1.069639 14.682548 -1.270809 -7.275952 -4.707136 -13.635836 43.090819 -0.981123 10.528269 19.630204 -0.139475 2.391134 -6.588809 -6.077064 1.613208 -8.366734 -0.290952 2.612436 -9.994700 1.015010 1.738362 -0.653752 -1.007476 -0.510085 -9.512962 4.934037 -1.077483 10.625058 0.414909 -0.223607 3.679110 12.877219 7.802912 0.515153 -97.624005 22.941365 -37.532419 2.204491 -8.205275 -0.011385 -1.066929 0.078343 64.899934 8.331931 -12.627712 -1.803220 -7.125000 0.000000 0.000000 -12.768488 18.336999 8.314170 -12.962501 -6.845789 -0.139398 94.228762 -2.389914 34.073896 -45.041333 56.170887 -21.863599 0.447705 -1.359180 -16.936791 -20.876185 -32.261308 11.050619 7.125000 0.000000 0.000000 12.689676 -61.998181 -5.292582
0.905060 17.079177 -11.759368 1.602057 -4.005190 20.066223 -0.933740 -3.181630 -4.522492 -14.111930 -7.352274 -46.869294 0.975823 11.676328 30.124469 0.675135 -2.615941 5.653137 0.183923 -2.693745 -7.430849 -0.178380 1.154290 -1.127032 14.536680 -1.096444 -7.841068 -5.090970 -14.026135 44.581848 -1.049020 9.962926 20.822010 -0.106358 2.080014 -5.727710 -6.316595 1.549972 -8.217655 -0.295906 2.559697 -9.994905 1.105914 1.717568 -0.719761 -1.007961 -0.493998 -9.481671 4.971691 -1.062524 10.579239 0.427087 -0.216206 3.652698 12.877891 7.790235 0.511683 -97.643660 22.759132 -37.688010 2.238075 -8.278276 -0.022541 -1.055871 0.115896 65.083960 7.795623 -12.723888 -1.717569 -7.125000 0.000000 0.000000 -13.114670 18.239530 8.578749 -12.963581 -6.836105 -0.119639 94.340659 -2.791486 34.044974 -44.559068 55.941718 -21.514839 0.432516 -1.367442 -17.040579 -21.026836 -32.578819 11.225054 7.125000 0.000000 0.000000 12.768447 -62.343560 -5.432021
